<svg height="512" viewBox="0 0 256 256" width="512" xmlns="http://www.w3.org/2000/svg"><g id="Layer_19"><g><g><g><ellipse cx="229.986" cy="185.646" fill="#5290db" rx="23.514" ry="23.514" transform="matrix(.924 -.383 .383 .924 -53.537 102.143)"/></g></g><g><g><circle cx="94.842" cy="21.999" fill="#5290db" r="19.499"/></g></g><g><g><circle cx="113.842" cy="232.228" fill="#5290db" r="21.272"/></g></g><g><g><circle cx="207.857" cy="43.457" fill="#5290db" r="28.702"/></g></g><g><g><circle cx="31.202" cy="127.457" fill="#5290db" r="28.702"/></g></g><g><g><circle cx="137" cy="129" fill="#f5c84c" r="57.5"/></g></g><g><g><path d="m234.869 191.345c-1.474-.268-2.992-.409-4.543-.409s-3.069.14-4.543.409c-5.974 1.088-10.544 5.748-11.739 11.582 4.191 3.868 9.789 6.233 15.941 6.233 6.427 0 12.249-2.581 16.493-6.759-1.354-5.586-5.816-10.001-11.609-11.056z" fill="#fc657e"/></g></g><g><g><path d="m229.986 173.093c-4.893 0-8.86 3.967-8.86 8.86s3.967 8.86 8.86 8.86c4.894 0 8.861-3.967 8.861-8.86s-3.968-8.86-8.861-8.86z" fill="#f9d0b4"/></g></g><g><g><path d="m98.892 26.725c-1.222-.223-2.481-.339-3.767-.339s-2.545.116-3.767.339c-4.954.902-8.743 4.766-9.734 9.605 3.475 3.207 8.117 5.168 13.219 5.168 5.329 0 10.157-2.14 13.676-5.605-1.124-4.632-4.824-8.293-9.627-9.168z" fill="#f5c84c"/></g></g><g><g><ellipse cx="94.842" cy="18.937" fill="#f9d0b4" rx="7.347" ry="7.347" transform="matrix(.707 -.707 .707 .707 14.388 72.61)"/></g></g><g><g><path d="m118.26 237.384c-1.333-.243-2.706-.37-4.11-.37-1.403 0-2.777.127-4.11.37-5.404.985-9.538 5.2-10.619 10.478 3.791 3.499 8.855 5.638 14.42 5.638 5.814 0 11.08-2.335 14.92-6.115-1.225-5.052-5.261-9.046-10.501-10.001z" fill="#b2e26d"/></g></g><g><g><circle cx="113.842" cy="228.889" fill="#f9d0b4" r="8.015"/></g></g><g><g><path d="m213.819 50.413c-1.799-.328-3.652-.499-5.545-.499s-3.747.171-5.545.499c-7.292 1.328-12.87 7.016-14.328 14.138 5.115 4.721 11.948 7.608 19.458 7.608 7.844 0 14.951-3.15 20.132-8.25-1.656-6.818-7.102-12.208-14.172-13.496z" fill="#70d6f9"/></g></g><g><g><circle cx="207.857" cy="38.951" fill="#f9d0b4" r="10.815"/></g></g><g><g><path d="m37.164 134.413c-1.799-.328-3.652-.499-5.545-.499s-3.747.171-5.545.499c-7.292 1.328-12.87 7.016-14.328 14.138 5.115 4.721 11.948 7.608 19.458 7.608 7.844 0 14.951-3.15 20.132-8.25-1.656-6.818-7.102-12.208-14.172-13.496z" fill="#b598f9"/></g></g><g><g><ellipse cx="31.202" cy="122.951" fill="#f9d0b4" rx="10.815" ry="10.815" transform="matrix(.707 -.707 .707 .707 -77.8 58.075)"/></g></g><g><g><path d="m172.698 166.342-11.339-2.854c-6.01-1.513-10.736-4.105-10.675-4.074-2.471-1.218-4.036-3.734-4.036-6.489v-3.408c-2.892 1.514-6.174 2.376-9.649 2.376s-6.756-.862-9.649-2.376v3.408c0 2.755-1.565 5.271-4.036 6.489-3.339 1.646-6.253 2.961-10.675 4.074l-11.339 2.854c-2.037.513-3.724 1.773-4.835 3.436 10.397 10.334 24.719 16.722 40.535 16.722s30.138-6.388 40.533-16.722c-1.111-1.663-2.798-2.923-4.835-3.436z" fill="#70d6f9"/></g></g><g><g><path d="m154.952 105.899c-1.369-1.436-3.596-1.568-5.157-.343-2.468 1.937-6.739 4.332-12.771 4.332-6.047 0-10.34-2.406-12.819-4.346-1.56-1.221-3.782-1.084-5.149.35l-.007.008c-1.921 2.014-2.992 4.69-2.992 7.473v17.577c0 11.519 9.425 20.944 20.944 20.944s20.944-9.425 20.944-20.944v-17.577c-.001-2.784-1.073-5.46-2.993-7.474z" fill="#f9d0b4"/></g></g><g><g><path d="m159.288 114.987c-.458 0-.906.039-1.344.107v15.855c0 .472-.021.94-.053 1.405.456.073.92.122 1.397.122 4.829 0 8.744-3.915 8.744-8.744s-3.915-8.745-8.744-8.745z" fill="#f9d0b4"/></g></g><g><g><path d="m116.056 130.949v-15.855c-.438-.068-.886-.107-1.344-.107-4.829 0-8.744 3.915-8.744 8.744s3.915 8.744 8.744 8.744c.477 0 .941-.049 1.397-.122-.031-.464-.053-.932-.053-1.404z" fill="#f9d0b4"/></g></g><g><g><path d="m157.865 97.122c-.701 0-1.309-.541-1.319-1.242-.161-11.67-13.487-13.863-26.759-11.571-11.252 1.943-19.476 11.701-19.476 23.119v8.756c1.294-.756 2.795-1.197 4.402-1.197.458 0 .906.039 1.344.107v-1.722c0-2.783 1.071-5.459 2.992-7.473l.007-.008c1.367-1.433 3.589-1.57 5.149-.35 2.479 1.94 6.772 4.346 12.819 4.346 6.032 0 10.303-2.395 12.771-4.332 1.561-1.225 3.788-1.093 5.157.343 1.921 2.014 2.992 4.69 2.992 7.473v1.722c.438-.068.886-.107 1.344-.107 1.626 0 3.144.452 4.448 1.225v-7.189c-.001-10.448-3.774-11.9-5.871-11.9z" fill="#5b5d60"/></g></g><g><g><path d="m150.684 159.414c-.495-.244-.942-.552-1.358-.892l-8.403 9.621c-.659.755-.582 1.901.173 2.56l5.469 4.777c.755.659 1.901.582 2.56-.173l10.691-12.24c-5.254-1.527-9.188-3.681-9.132-3.653z" fill="#9be5f9"/></g></g><g><g><path d="m133.077 168.143-8.403-9.621c-.417.34-.864.648-1.358.892-2.932 1.446-5.539 2.636-9.126 3.659l10.686 12.234c.659.755 1.805.832 2.56.173l5.469-4.777c.754-.659.831-1.805.172-2.56z" fill="#9be5f9"/></g></g><g><g><path d="m146.649 152.925v-3.409c-2.892 1.514-6.174 2.376-9.649 2.376s-6.756-.862-9.649-2.376v3.409c0 2.203-1.012 4.241-2.677 5.597l8.403 9.621c.251.287.393.631.434.982h6.977c.041-.352.184-.695.434-.982l8.403-9.621c-1.664-1.356-2.676-3.394-2.676-5.597z" fill="#f9d0b4"/></g></g><g><g><g><g><path d="m229.985 159.631c-14.344 0-26.014 11.67-26.014 26.015 0 14.344 11.67 26.014 26.014 26.014 14.345 0 26.015-11.67 26.015-26.014 0-14.345-11.67-26.015-26.015-26.015zm0 47.029c-11.587 0-21.014-9.427-21.014-21.014s9.427-21.015 21.014-21.015c11.588 0 21.015 9.427 21.015 21.015s-9.427 21.014-21.015 21.014z"/></g></g></g></g><g><g><g><g><path d="m94.842 0c-12.13 0-21.999 9.869-21.999 21.999s9.869 21.999 21.999 21.999 21.999-9.869 21.999-21.999-9.869-21.999-21.999-21.999zm0 38.998c-9.373 0-16.999-7.625-16.999-16.999s7.626-16.999 16.999-16.999 16.999 7.626 16.999 16.999-7.626 16.999-16.999 16.999z"/></g></g></g></g><g><g><g><g><path d="m113.842 208.457c-13.107 0-23.771 10.664-23.771 23.771s10.663 23.772 23.771 23.772 23.771-10.664 23.771-23.771-10.664-23.772-23.771-23.772zm0 42.543c-10.351 0-18.771-8.421-18.771-18.771s8.421-18.771 18.771-18.771 18.771 8.421 18.771 18.771-8.421 18.771-18.771 18.771z"/></g></g></g></g><g><g><g><g><path d="m207.857 12.255c-17.205 0-31.202 13.997-31.202 31.202s13.997 31.202 31.202 31.202 31.202-13.997 31.202-31.202-13.996-31.202-31.202-31.202zm0 57.404c-14.448 0-26.202-11.754-26.202-26.202s11.754-26.202 26.202-26.202 26.202 11.754 26.202 26.202-11.753 26.202-26.202 26.202z"/></g></g></g></g><g><g><g><g><path d="m31.202 96.255c-17.205 0-31.202 13.997-31.202 31.202s13.997 31.202 31.202 31.202 31.202-13.997 31.202-31.202-13.997-31.202-31.202-31.202zm0 57.404c-14.448 0-26.202-11.754-26.202-26.202s11.754-26.202 26.202-26.202 26.202 11.754 26.202 26.202-11.754 26.202-26.202 26.202z"/></g></g></g></g><g><g><path d="m211.906 229.1h-2.4v-2.3c0-1.8-1.4-3.2-3.2-3.2-1.7 0-3.2 1.4-3.2 3.1v2.4h-2.3c-1.8 0-3.2 1.4-3.2 3.2-.1 1.7 1.3 3.2 3.2 3.2h2.3v2.3c0 1.8 1.4 3.2 3.2 3.2 1.7 0 3.2-1.4 3.2-3.1v-2.4h2.3c1.8 0 3.2-1.4 3.2-3.2 0-1.7-1.4-3.2-3.1-3.2z" fill="#70d6f9"/></g></g><g><g><circle cx="171.206" cy="252.6" fill="#f5c84c" r="3.4"/></g></g><g><g><path d="m55.15 207.175c-3.1-.6-5.6-3-6.2-6.1 0-.1-.3-.1-.3 0-.6 3.1-3.1 5.5-6.2 6.1-.1 0-.1.2 0 .3 3.1.6 5.6 3 6.2 6.1 0 .1.3.1.3 0 .6-3.1 3.1-5.5 6.2-6.1.1-.1.1-.3 0-.3z" fill="#fc657e"/></g></g><g><g><path d="m60.369 0c-1.878 0-3.4 1.522-3.4 3.4s1.522 3.4 3.4 3.4 3.4-1.522 3.4-3.4-1.523-3.4-3.4-3.4z" fill="#87d147"/></g></g><g><g><path d="m44.15 32.2c-4.5-.8-8-4.3-8.9-8.7 0-.2-.4-.2-.4 0-.9 4.4-4.4 7.9-8.9 8.7-.2 0-.2.3 0 .4 4.5.8 8 4.3 8.9 8.7 0 .2.4.2.4 0 .9-4.4 4.4-7.9 8.9-8.7.2-.1.2-.4 0-.4z" fill="#f5c84c"/></g></g><g><g><g><g><path d="m137 69c-33.084 0-60 26.916-60 60s26.916 60 60 60 60-26.916 60-60-26.916-60-60-60zm0 115c-30.327 0-55-24.673-55-55s24.673-55 55-55 55 24.673 55 55-24.673 55-55 55z"/></g></g></g></g><g><g><path d="m248.718 201.093c-1.831-6.358-6.966-11.036-13.4-12.208-3.271-.596-6.711-.596-9.982 0-6.722 1.225-12.076 6.361-13.64 13.086-.313 1.345.523 2.688 1.868 3.001.19.044.381.065.568.065 1.137 0 2.165-.78 2.433-1.934 1.112-4.783 4.907-8.433 9.667-9.3 2.682-.488 5.508-.488 8.189 0 4.553.83 8.19 4.153 9.492 8.673.382 1.326 1.765 2.093 3.095 1.71 1.326-.381 2.092-1.766 1.71-3.093z"/></g></g><g><g><g><g><path d="m229.985 170.593c-6.264 0-11.36 5.097-11.36 11.361s5.097 11.36 11.36 11.36 11.36-5.096 11.36-11.36-5.096-11.361-11.36-11.361zm0 17.721c-3.507 0-6.36-2.853-6.36-6.36s2.854-6.361 6.36-6.361 6.36 2.854 6.36 6.361-2.853 6.36-6.36 6.36z"/></g></g></g></g><g><g><path d="m110.774 34.656c-1.57-5.41-5.952-9.392-11.435-10.391-2.76-.503-5.667-.503-8.431 0-5.673 1.033-10.23 5.357-11.612 11.016-.327 1.341.494 2.694 1.836 3.021.199.049.398.072.595.072 1.126 0 2.147-.766 2.427-1.908.914-3.744 3.917-6.603 7.651-7.283 2.173-.396 4.467-.396 6.638 0 3.605.657 6.49 3.288 7.53 6.866.385 1.326 1.771 2.089 3.098 1.704s2.089-1.771 1.703-3.097z"/></g></g><g><g><g><g><path d="m94.842 9.09c-5.43 0-9.848 4.417-9.848 9.848 0 5.43 4.418 9.847 9.848 9.847s9.848-4.417 9.848-9.847c-.001-5.431-4.419-9.848-9.848-9.848zm0 14.695c-2.673 0-4.848-2.174-4.848-4.847s2.175-4.848 4.848-4.848 4.848 2.175 4.848 4.848-2.175 4.847-4.848 4.847z"/></g></g></g></g><g><g><path d="m131.08 246.364c-1.598-5.871-6.454-10.362-12.372-11.44-2.991-.544-6.127-.544-9.116 0-6.129 1.117-11.037 5.794-12.504 11.916-.321 1.343.507 2.692 1.85 3.014.195.047.392.069.584.069 1.13 0 2.154-.771 2.43-1.918 1.005-4.196 4.355-7.4 8.537-8.162 2.397-.436 4.924-.437 7.323 0 4.034.735 7.349 3.81 8.444 7.834.362 1.333 1.741 2.118 3.068 1.755 1.333-.361 2.118-1.735 1.756-3.068z"/></g></g><g><g><g><g><path d="m113.842 218.374c-5.799 0-10.516 4.717-10.516 10.515s4.717 10.516 10.516 10.516 10.516-4.717 10.516-10.516c-.001-5.798-4.717-10.515-10.516-10.515zm0 16.03c-3.041 0-5.516-2.474-5.516-5.516 0-3.041 2.475-5.515 5.516-5.515s5.516 2.474 5.516 5.515c-.001 3.042-2.475 5.516-5.516 5.516z"/></g></g></g></g><g><g><path d="m230.148 62.316c-2.214-7.477-8.299-12.98-15.882-14.362-3.927-.716-8.063-.716-11.987 0-7.92 1.443-14.269 7.487-16.174 15.397-.323 1.342.503 2.693 1.846 3.016.196.047.394.07.587.07 1.129 0 2.152-.77 2.429-1.915 1.442-5.988 6.234-10.561 12.209-11.649 3.335-.607 6.857-.608 10.194 0 5.717 1.042 10.309 5.204 11.983 10.862.393 1.324 1.781 2.079 3.107 1.688 1.324-.392 2.08-1.783 1.688-3.107z"/></g></g><g><g><g><g><path d="m207.857 25.635c-7.342 0-13.315 5.973-13.315 13.315s5.974 13.315 13.315 13.315 13.315-5.973 13.315-13.315-5.973-13.315-13.315-13.315zm0 21.631c-4.585 0-8.315-3.73-8.315-8.315s3.73-8.315 8.315-8.315 8.315 3.73 8.315 8.315-3.73 8.315-8.315 8.315z"/></g></g></g></g><g><g><path d="m53.633 146.81c-2.055-7.626-8.344-13.458-16.021-14.856-3.922-.715-8.06-.716-11.987 0-8.046 1.465-14.421 7.623-16.242 15.688-.305 1.347.541 2.685 1.888 2.989.186.042.371.062.553.062 1.143 0 2.175-.789 2.437-1.95 1.379-6.105 6.191-10.765 12.262-11.87 3.337-.609 6.86-.608 10.193 0 5.79 1.054 10.535 5.465 12.09 11.238.359 1.333 1.734 2.12 3.064 1.764 1.332-.36 2.122-1.731 1.763-3.065z"/></g></g><g><g><g><g><path d="m31.202 109.635c-7.342 0-13.315 5.973-13.315 13.315s5.974 13.315 13.315 13.315 13.315-5.973 13.315-13.315-5.973-13.315-13.315-13.315zm0 21.631c-4.585 0-8.315-3.73-8.315-8.315s3.73-8.315 8.315-8.315 8.315 3.73 8.315 8.315-3.73 8.315-8.315 8.315z"/></g></g></g></g><g><g><path d="m85.348 37.044c-1.188-.699-2.722-.305-3.423.886l-37.378 63.484c-.7 1.19-.304 2.722.886 3.423.398.234.835.346 1.267.346.856 0 1.69-.44 2.156-1.232l37.378-63.484c.7-1.19.303-2.722-.886-3.423z"/></g></g><g><g><path d="m101.562 213.92-50.591-64.609c-.851-1.086-2.424-1.278-3.51-.427-1.087.851-1.278 2.422-.428 3.51l50.591 64.609c.493.629 1.229.958 1.971.958.539 0 1.082-.173 1.539-.532 1.087-.85 1.278-2.422.428-3.509z"/></g></g><g><g><path d="m210.225 194.89c-.528-1.275-1.99-1.884-3.266-1.354l-72.802 30.125c-1.275.528-1.882 1.99-1.354 3.266.398.963 1.329 1.544 2.311 1.544.318 0 .643-.061.955-.19l72.802-30.125c1.275-.528 1.882-1.99 1.354-3.266z"/></g></g><g><g><path d="m229.088 161.234-13.869-88.889c-.213-1.364-1.485-2.298-2.855-2.085-1.364.213-2.297 1.491-2.084 2.855l13.869 88.889c.192 1.234 1.256 2.115 2.467 2.115.128 0 .258-.01.389-.03 1.363-.212 2.296-1.49 2.083-2.855z"/></g></g><g><g><path d="m179.082 36.752-63.303-13.327c-1.346-.285-2.677.58-2.961 1.931s.58 2.677 1.932 2.961l63.303 13.327c.173.037.347.054.518.054 1.156 0 2.195-.808 2.443-1.985.284-1.351-.58-2.677-1.932-2.961z"/></g></g><g><g><path d="m78.609 125.889-17.646-.333c-1.394-.033-2.521 1.072-2.547 2.452-.025 1.381 1.072 2.521 2.453 2.547l17.646.333h.048c1.358 0 2.473-1.088 2.499-2.453.026-1.38-1.072-2.52-2.453-2.546z"/></g></g><g><g><path d="m118.441 73.381-13.037-33.653c-.499-1.286-1.945-1.929-3.234-1.428-1.287.499-1.927 1.947-1.428 3.234l13.037 33.653c.384.99 1.329 1.597 2.332 1.597.3 0 .605-.054.902-.169 1.288-.498 1.927-1.947 1.428-3.234z"/></g></g><g><g><path d="m210.144 171.109-22.151-13.142c-1.188-.705-2.721-.314-3.426.875-.704 1.187-.313 2.721.875 3.425l22.151 13.142c.4.238.839.351 1.273.351.854 0 1.685-.438 2.152-1.225.705-1.188.313-2.722-.874-3.426z"/></g></g><g><g><path d="m188.434 62.47c-1.081-.86-2.654-.679-3.513.4l-14.584 18.333c-.86 1.081-.681 2.653.399 3.513.46.366 1.01.543 1.555.543.736 0 1.465-.323 1.958-.944l14.584-18.333c.86-1.08.681-2.653-.399-3.512z"/></g></g><g><g><path d="m124.999 183.392c-1.349-.314-2.689.521-3.005 1.864l-5.783 24.7c-.314 1.344.521 2.689 1.864 3.004.192.045.384.066.572.066 1.135 0 2.162-.778 2.433-1.931l5.783-24.7c.315-1.343-.52-2.688-1.864-3.003z"/></g></g><g><g><path d="m179.333 167.991c-1.485-2.022-3.625-3.469-6.024-4.073l-11.339-2.854c-5.437-1.369-9.822-3.701-10.057-3.827-.04-.023-.081-.044-.123-.065-1.63-.803-2.642-2.431-2.642-4.247v-2.633c0-1.381-1.119-2.5-2.5-2.5s-2.5 1.119-2.5 2.5v2.633c0 3.679 2.02 6.98 5.281 8.656.659.417 1.694.883 3.362 1.603 1.837.793 4.709 1.911 7.957 2.729l11.339 2.854c1.274.321 2.417 1.097 3.216 2.185.489.667 1.248 1.02 2.017 1.02.514 0 1.032-.158 1.479-.485 1.112-.819 1.351-2.383.534-3.496z"/></g></g><g><g><path d="m127.352 147.625c-1.381 0-2.5 1.119-2.5 2.5v2.8c0 1.816-1.012 3.444-2.642 4.247-3.017 1.487-5.864 2.806-10.18 3.892l-11.339 2.854c-2.266.57-4.247 1.846-5.729 3.689-.865 1.076-.694 2.649.382 3.515.461.371 1.015.552 1.564.552.731 0 1.456-.319 1.95-.933.795-.989 1.852-1.672 3.054-1.975l11.339-2.854c4.791-1.206 7.894-2.641 11.17-4.256 3.35-1.651 5.431-4.997 5.431-8.731v-2.8c0-1.381-1.12-2.5-2.5-2.5z"/></g></g><g><g><g><g><path d="m156.762 104.174c-2.261-2.369-5.918-2.62-8.511-.585-2.208 1.733-5.948 3.799-11.228 3.799-5.293 0-9.055-2.075-11.278-3.815-2.59-2.026-6.243-1.772-8.507.601-2.374 2.49-3.682 5.757-3.682 9.198v17.577c0 12.927 10.517 23.443 23.443 23.443s23.443-10.517 23.443-23.443v-17.577c.001-3.441-1.306-6.707-3.68-9.198zm-1.319 26.775c0 10.17-8.273 18.443-18.443 18.443s-18.443-8.273-18.443-18.443v-17.577c0-2.15.817-4.191 2.309-5.755.255-.267.598-.403.946-.403.297 0 .598.098.852.297 2.843 2.225 7.642 4.877 14.36 4.877 6.708 0 11.486-2.646 14.315-4.866.557-.437 1.334-.391 1.804.102 1.483 1.556 2.301 3.597 2.301 5.748v17.577z"/></g></g></g></g><g><g><path d="m159.288 112.487c-1.381 0-2.5 1.119-2.5 2.5s1.119 2.5 2.5 2.5c3.442 0 6.243 2.801 6.243 6.244s-2.801 6.244-6.243 6.244c-1.381 0-2.5 1.119-2.5 2.5s1.119 2.5 2.5 2.5c6.199 0 11.243-5.044 11.243-11.244s-5.044-11.244-11.243-11.244z"/></g></g><g><g><path d="m114.713 129.976c-3.443 0-6.244-2.801-6.244-6.244s2.801-6.244 6.244-6.244c1.381 0 2.5-1.119 2.5-2.5s-1.119-2.5-2.5-2.5c-6.2 0-11.244 5.044-11.244 11.244s5.044 11.244 11.244 11.244c1.381 0 2.5-1.119 2.5-2.5s-1.119-2.5-2.5-2.5z"/></g></g><g><g><g><g><path d="m158.993 94.715c-.31-3.785-1.919-6.976-4.693-9.28-6.851-5.688-18.566-4.69-24.938-3.59-12.487 2.156-21.551 12.916-21.551 25.583v8.259c0 1.381 1.119 2.5 2.5 2.5s2.5-1.119 2.5-2.5v-8.259c0-10.228 7.318-18.915 17.402-20.656 9.266-1.6 17.073-.661 20.893 2.51 1.94 1.611 2.902 3.78 2.941 6.629.025 2.046 1.738 3.711 3.818 3.711 2.079 0 3.37 3.603 3.37 9.401v6.768c0 1.381 1.119 2.5 2.5 2.5s2.5-1.119 2.5-2.5v-6.768c0-11.312-4.433-13.842-7.242-14.308z"/></g></g></g></g><g><g><path d="m160.617 162.148c-1.039-.908-2.62-.803-3.527.238l-9.397 10.759-4.436-3.875 7.338-8.401c.908-1.04.802-2.619-.238-3.527-1.038-.908-2.619-.803-3.527.238l-7.789 8.917c-1.565 1.792-1.381 4.523.411 6.087l5.47 4.778c.816.712 1.827 1.062 2.835 1.062 1.203 0 2.4-.5 3.252-1.475l9.848-11.275c.907-1.038.8-2.617-.24-3.526z"/></g></g><g><g><path d="m134.96 166.499-7.924-9.072c-.907-1.04-2.488-1.146-3.527-.238-1.04.908-1.146 2.487-.238 3.527l7.473 8.556-4.436 3.874-9.599-10.989c-.908-1.041-2.489-1.146-3.527-.238-1.04.908-1.146 2.488-.238 3.527l10.048 11.504c.758.869 1.809 1.39 2.96 1.468.1.007.198.01.297.01 1.043 0 2.038-.372 2.832-1.065l5.469-4.776c.868-.758 1.389-1.809 1.467-2.959.076-1.15-.299-2.261-1.057-3.129z"/></g></g><g><g><path d="m139.594 166.625h-5.655c-1.381 0-2.5 1.119-2.5 2.5s1.119 2.5 2.5 2.5h5.655c1.381 0 2.5-1.119 2.5-2.5s-1.119-2.5-2.5-2.5z"/></g></g></g></g></svg>